<?xml version="1.0" encoding="UTF-8" standalone="no"?>
<!-- Created with Inkscape (http://www.inkscape.org/) -->

<svg
   xmlns:dc="http://purl.org/dc/elements/1.1/"
   xmlns:cc="http://creativecommons.org/ns#"
   xmlns:rdf="http://www.w3.org/1999/02/22-rdf-syntax-ns#"
   xmlns:svg="http://www.w3.org/2000/svg"
   xmlns="http://www.w3.org/2000/svg"
   xmlns:sodipodi="http://sodipodi.sourceforge.net/DTD/sodipodi-0.dtd"
   xmlns:inkscape="http://www.inkscape.org/namespaces/inkscape"
   width="210mm"
   height="297mm"
   viewBox="0 0 210 297"
   version="1.1"
   id="svg8"
   sodipodi:docname="HTML LOGO (copy).svg"
   inkscape:version="0.92.3 (2405546, 2018-03-11)">
  <defs
     id="defs2" />
  <sodipodi:namedview
     id="base"
     pagecolor="#ffffff"
     bordercolor="#666666"
     borderopacity="1.0"
     inkscape:pageopacity="0.0"
     inkscape:pageshadow="2"
     inkscape:zoom="0.98994949"
     inkscape:cx="757.82516"
     inkscape:cy="770.52234"
     inkscape:document-units="mm"
     inkscape:current-layer="layer1"
     showgrid="false"
     inkscape:snap-text-baseline="false"
     inkscape:snap-global="false"
     showguides="true"
     inkscape:guide-bbox="true"
     inkscape:window-width="1533"
     inkscape:window-height="845"
     inkscape:window-x="67"
     inkscape:window-y="27"
     inkscape:window-maximized="1">
    <sodipodi:guide
       position="47.306707,176.93243"
       orientation="0,1"
       id="guide1258"
       inkscape:locked="false" />
  </sodipodi:namedview>
  <metadata
     id="metadata5">
    <rdf:RDF>
      <cc:Work
         rdf:about="">
        <dc:format>image/svg+xml</dc:format>
        <dc:type
           rdf:resource="http://purl.org/dc/dcmitype/StillImage" />
      </cc:Work>
    </rdf:RDF>
  </metadata>
  <g
     inkscape:label="Layer 1"
     inkscape:groupmode="layer"
     id="layer1">
    <flowRoot
       xml:space="preserve"
       id="flowRoot4605"
       style="font-style:normal;font-weight:normal;font-size:26.66666603px;line-height:1.25;font-family:sans-serif;letter-spacing:0px;word-spacing:0px;fill:#000000;fill-opacity:1;stroke:none"><flowRegion
         id="flowRegion4607"
         style="font-size:26.66666603px"><rect
           id="rect4609"
           width="97.580734"
           height="62.225395"
           x="132.93608"
           y="353.1875"
           style="font-size:26.66666603px" /></flowRegion><flowPara
         id="flowPara4611" /></flowRoot>    <g
       id="g4646"
       transform="matrix(0.41817514,0,0,0.41817514,64.513029,55.7519)" />
    <g
       id="g915">
      <path
         inkscape:connector-curvature="0"
         style="color:#000000;font-style:normal;font-variant:normal;font-weight:normal;font-stretch:normal;font-size:medium;line-height:normal;font-family:sans-serif;font-variant-ligatures:normal;font-variant-position:normal;font-variant-caps:normal;font-variant-numeric:normal;font-variant-alternates:normal;font-feature-settings:normal;text-indent:0;text-align:start;text-decoration:none;text-decoration-line:none;text-decoration-style:solid;text-decoration-color:#000000;letter-spacing:normal;word-spacing:normal;text-transform:none;writing-mode:lr-tb;direction:ltr;text-orientation:mixed;dominant-baseline:auto;baseline-shift:baseline;text-anchor:start;white-space:normal;shape-padding:0;clip-rule:nonzero;display:inline;overflow:visible;visibility:visible;opacity:1;isolation:auto;mix-blend-mode:normal;color-interpolation:sRGB;color-interpolation-filters:linearRGB;solid-color:#000000;solid-opacity:1;vector-effect:none;fill:#000000;fill-opacity:1;fill-rule:nonzero;stroke:none;stroke-width:6.98296118;stroke-linecap:round;stroke-linejoin:round;stroke-miterlimit:4;stroke-dasharray:none;stroke-dashoffset:0;stroke-opacity:1;color-rendering:auto;image-rendering:auto;shape-rendering:auto;text-rendering:auto;enable-background:accumulate"
         d="m 242.84961,239.60156 v 7.5 43.94336 H 69.958984 l 3.63086,10.04688 29.490236,81.59961 -33.121096,91.64648 H 242.84961 V 522.1582 L 385.93945,623.64453 529.03125,522.1582 v -47.82031 h 172.89063 l -33.11524,-91.64648 33.11524,-91.64649 H 691.24023 529.03125 v -51.44336 z m 15,15 h 256.18164 v 259.80469 l -64.52734,45.76758 -63.5625,-45.08008 -63.5625,45.08008 -64.5293,-45.76758 z m 4.91797,1.9043 c -0.81389,0.0265 -1.54885,0.34529 -2.07422,0.89844 -0.83999,0.88311 -1.03441,2.24396 -0.50391,3.52148 l 39.57422,95.25391 c -0.57961,0.58767 -0.30801,1.57163 0.71875,2.60742 l 0.62696,0.63477 0.0684,0.1621 c 0.44708,1.0748 1.35066,1.94903 2.43555,2.35743 l 20.32227,20.4707 -61.18164,61.62695 c -1.65898,1.67331 -2.93689,4.77722 -2.85547,6.9336 l 1.26562,33.4414 c -0.50537,1.11099 -0.45999,2.31896 0.1211,3.22656 l 0.0312,0.8418 c 0.0673,1.72936 1.00248,2.36713 2.29882,1.56836 l 15.59961,15.44531 c -0.79097,1.3039 -0.13963,2.23485 1.59766,2.28516 l 0.83203,0.0234 c 0.91428,0.57486 2.12647,0.60905 3.23633,0.0937 l 33.49609,0.97656 c 2.15977,0.065 5.25741,-1.23948 6.91993,-2.91211 l 60.64648,-61.08789 60.64453,61.08789 c 0.41553,0.41805 0.92059,0.81358 1.47852,1.16992 0.27896,0.17817 0.57239,0.34506 0.87304,0.50196 1.50324,0.78445 3.21849,1.2804 4.56836,1.24023 l 33.49805,-0.97656 c 1.10986,0.5153 2.32202,0.48111 3.23633,-0.0937 l 0.83203,-0.0234 c 1.7373,-0.0503 2.38668,-0.98126 1.5957,-2.28516 l 15.59961,-15.44531 c 1.29638,0.79877 2.23155,0.16112 2.29883,-1.56836 l 0.0312,-0.8418 c 0.58163,-0.90734 0.62807,-2.1153 0.12305,-3.22656 l 1.26172,-33.4414 c 0.0812,-2.15638 -1.19649,-5.26029 -2.85547,-6.9336 l -61.17969,-61.62695 20.32226,-20.4707 c 1.08492,-0.4084 1.98847,-1.28262 2.43555,-2.35743 l 0.0684,-0.1621 0.62695,-0.63477 c 1.02686,-1.03559 1.29763,-2.01951 0.71875,-2.60742 l 39.57227,-95.25391 c 0.5308,-1.27726 0.33755,-2.63806 -0.50195,-3.52148 -0.52536,-0.55314 -1.26034,-0.87197 -2.07422,-0.89844 -0.25412,-0.008 -0.51084,0.0127 -0.76758,0.0606 -0.25674,0.0479 -0.51363,0.12416 -0.76367,0.22656 l -96.08789,39.36719 c -0.29403,-0.30902 -0.69199,-0.39658 -1.14649,-0.27539 -0.45449,0.12118 -0.9656,0.45121 -1.49023,0.97851 l -0.63086,0.63477 -0.11133,0.0469 c -1.09177,0.44816 -1.97884,1.36629 -2.38476,2.46875 l -19.79102,19.9375 -19.79297,-19.9375 c -0.40593,-1.10246 -1.29301,-2.02058 -2.38477,-2.46875 l -0.11132,-0.0469 -0.63086,-0.63477 c -1.0493,-1.05465 -2.04865,-1.32121 -2.63672,-0.70312 l -96.08789,-39.36719 c -0.50009,-0.20481 -1.02302,-0.30385 -1.53125,-0.28711 z m 6.76172,9.60547 90.14062,36.93555 -1.21484,32.20703 c -0.006,0.21528 9.8e-4,0.44455 0.0215,0.68359 l -18.82812,18.64258 c -0.24099,-0.0227 -0.47055,-0.0303 -0.6875,-0.0254 l -32.29102,0.93945 z m 232.82617,0 -37.13867,89.38281 -32.29102,-0.93945 c -0.21732,-0.005 -0.44798,0.003 -0.68945,0.0254 L 413.41016,335.9375 c 0.0227,-0.23894 0.029,-0.46626 0.0215,-0.68164 L 412.2168,303.04688 Z M 91.328125,306.04492 H 242.84961 v 12.82227 H 95.960938 Z m 437.703125,0 h 151.51953 l -4.63281,12.82227 H 529.03125 Z m -163.29883,1.66211 140.09375,141.11719 -1.10351,29.16992 -140.09375,-141.11719 z m 40.41992,0 1.10352,29.16992 L 405,339.14844 389.96875,324.00781 Z m -304.76953,26.16016 h 141.4668 v 97.64843 h -141.4668 l 17.64258,-48.82421 z m 427.64844,0 H 670.5 L 652.86133,382.69141 670.5,431.51562 H 529.03125 Z M 361.8125,343.23047 502.60547,485.05664 487.71484,499.80273 346.91992,357.97656 Z m 48.25977,0 14.89257,14.74609 -0.63672,0.64063 -14.76367,-14.87305 z m -69.53321,17.50976 140.09375,141.11719 -29.22265,0.84961 -140.0918,-141.11523 z m 90.80664,0 29.22071,0.85157 -16.64258,16.76367 -15.03321,-15.14258 z m -103.38476,25.72852 15.03125,15.14063 -75.83008,76.38476 -1.10156,-29.16992 z m 19.5957,19.73633 14.76367,14.875 -78.14843,78.72265 -14.89258,-14.74609 z m 19.32617,19.46875 15.03321,15.14258 -61.44141,61.89062 -29.22266,-0.84961 z M 95.960938,446.51562 H 242.84961 v 12.82227 H 91.328125 Z m 433.070312,0 h 146.88672 l 4.63281,12.82227 H 529.03125 Z m -144.02344,97.75391 4.95703,16.11719 16.85938,0.006 -13.79492,9.69336 5.20508,16.03711 -13.48243,-10.125 -13.64453,9.90625 5.46289,-15.95118 -13.63672,-9.91601 16.85938,0.26758 z"
         transform="matrix(0.11064217,0,0,0.11064217,64.513029,55.751899)"
         id="rect4518" />
      <g
         id="text4615"
         style="font-style:normal;font-weight:normal;font-size:26.76638794px;line-height:1.25;font-family:sans-serif;letter-spacing:0px;word-spacing:0px;fill:#000000;fill-opacity:1;stroke:none;stroke-width:1.0037396"
         aria-label="19"
         transform="matrix(0.41817515,0,0,0.41817515,64.513029,55.751899)">
        <path
           id="path861"
           style="stroke-width:1.0037396"
           d="M 33.414817,108.77506 H 37.72776 V 93.888871 l -4.691959,0.941006 v -2.404793 l 4.66582,-0.941006 h 2.640045 v 17.290982 h 4.312943 v 2.22182 H 33.414817 Z" />
        <path
           id="path863"
           style="stroke-width:1.0037396"
           d="m 50.078462,110.59172 v -2.40479 q 0.993284,0.4705 2.012707,0.71883 1.019423,0.24832 1.999638,0.24832 2.613905,0 3.986205,-1.75132 1.38537,-1.76439 1.581413,-5.34544 -0.758033,1.12398 -1.921221,1.72518 -1.163187,0.6012 -2.574696,0.6012 -2.927574,0 -4.639682,-1.76439 -1.699038,-1.77745 -1.699038,-4.84879 0,-3.005991 1.777456,-4.822655 1.777455,-1.816664 4.731168,-1.816664 3.385007,0 5.162462,2.600836 1.790525,2.587766 1.790525,7.528043 0,4.61355 -2.19568,7.37122 -2.182611,2.7446 -5.881286,2.7446 -0.993284,0 -2.012707,-0.19605 -1.019423,-0.19604 -2.117264,-0.58813 z m 5.25395,-8.27301 q 1.777455,0 2.809948,-1.21546 1.045562,-1.215467 1.045562,-3.33273 0,-2.104194 -1.045562,-3.31966 -1.032493,-1.228535 -2.809948,-1.228535 -1.777456,0 -2.823018,1.228535 -1.032492,1.215466 -1.032492,3.31966 0,2.117263 1.032492,3.33273 1.045562,1.21546 2.823018,1.21546 z" />
      </g>
      <g
         id="flowRoot4617"
         style="font-style:normal;font-weight:normal;font-size:26.66666603px;line-height:1.25;font-family:sans-serif;letter-spacing:0px;word-spacing:0px;fill:#000000;fill-opacity:1;stroke:none"
         transform="matrix(0.38819534,0,0,0.43647498,-80.759027,-50.417849)"
         aria-label="98">
        <path
           id="path856"
           style=""
           d="m 528.03516,349.55534 v -2.39584 q 0.98958,0.46875 2.0052,0.71615 1.01563,0.2474 1.99219,0.2474 2.60417,0 3.97136,-1.7448 1.3802,-1.75781 1.57552,-5.32552 -0.75521,1.1198 -1.91407,1.71875 -1.15885,0.59896 -2.5651,0.59896 -2.91667,0 -4.6224,-1.75781 -1.6927,-1.77083 -1.6927,-4.83073 0,-2.99479 1.77083,-4.80469 1.77083,-1.80989 4.71354,-1.80989 3.3724,0 5.14323,2.59114 1.78385,2.57813 1.78385,7.5 0,4.59636 -2.1875,7.34375 -2.17447,2.73438 -5.85937,2.73438 -0.98958,0 -2.00521,-0.19531 -1.01562,-0.19532 -2.10937,-0.58594 z m 5.23437,-8.24219 q 1.77083,0 2.79948,-1.21094 1.04167,-1.21093 1.04167,-3.32031 0,-2.09635 -1.04167,-3.30729 -1.02865,-1.22396 -2.79948,-1.22396 -1.77083,0 -2.8125,1.22396 -1.02864,1.21094 -1.02864,3.30729 0,2.10938 1.02864,3.32031 1.04167,1.21094 2.8125,1.21094 z" />
        <path
           id="path858"
           style=""
           d="m 550.5612,340.72721 q -1.875,0 -2.95573,1.00261 -1.06771,1.0026 -1.06771,2.76041 0,1.75782 1.06771,2.76042 1.08073,1.0026 2.95573,1.0026 1.875,0 2.95573,-1.0026 1.08073,-1.01562 1.08073,-2.76042 0,-1.75781 -1.08073,-2.76041 -1.06771,-1.00261 -2.95573,-1.00261 z m -2.63021,-1.11979 q -1.69271,-0.41667 -2.64323,-1.57552 -0.9375,-1.15885 -0.9375,-2.82552 0,-2.33073 1.65365,-3.6849 1.66666,-1.35416 4.55729,-1.35416 2.90364,0 4.55729,1.35416 1.65364,1.35417 1.65364,3.6849 0,1.66667 -0.95052,2.82552 -0.9375,1.15885 -2.61718,1.57552 1.90104,0.44271 2.95573,1.73177 1.0677,1.28906 1.0677,3.15104 0,2.82552 -1.73177,4.33594 -1.71875,1.51042 -4.93489,1.51042 -3.21615,0 -4.94792,-1.51042 -1.71875,-1.51042 -1.71875,-4.33594 0,-1.86198 1.06771,-3.15104 1.06771,-1.28906 2.96875,-1.73177 z m -0.96354,-4.15364 q 0,1.51041 0.9375,2.35677 0.95052,0.84635 2.65625,0.84635 1.69271,0 2.64323,-0.84635 0.96354,-0.84636 0.96354,-2.35677 0,-1.51042 -0.96354,-2.35677 -0.95052,-0.84636 -2.64323,-0.84636 -1.70573,0 -2.65625,0.84636 -0.9375,0.84635 -0.9375,2.35677 z" />
      </g>
      <path
         inkscape:connector-curvature="0"
         id="path1251"
         d="m 70.634766,85.089844 a 0.68806054,0.68806054 0 0 0 -0.621094,0.435547 c -4.616257,11.252299 -3.828273,23.778359 2.164062,34.449219 a 0.68806054,0.68806054 0 1 0 1.199219,-0.67383 C 67.584202,108.98533 66.82565,96.917089 71.285156,86.046875 a 0.68806054,0.68806054 0 0 0 -0.65039,-0.957031 z"
         style="color:#000000;font-style:normal;font-variant:normal;font-weight:normal;font-stretch:normal;font-size:medium;line-height:normal;font-family:sans-serif;font-variant-ligatures:normal;font-variant-position:normal;font-variant-caps:normal;font-variant-numeric:normal;font-variant-alternates:normal;font-feature-settings:normal;text-indent:0;text-align:start;text-decoration:none;text-decoration-line:none;text-decoration-style:solid;text-decoration-color:#000000;letter-spacing:normal;word-spacing:normal;text-transform:none;writing-mode:lr-tb;direction:ltr;text-orientation:mixed;dominant-baseline:auto;baseline-shift:baseline;text-anchor:start;white-space:normal;shape-padding:0;clip-rule:nonzero;display:inline;overflow:visible;visibility:visible;opacity:1;isolation:auto;mix-blend-mode:normal;color-interpolation:sRGB;color-interpolation-filters:linearRGB;solid-color:#000000;solid-opacity:1;vector-effect:none;fill:#000000;fill-opacity:1;fill-rule:nonzero;stroke:none;stroke-width:1.37598348;stroke-linecap:round;stroke-linejoin:round;stroke-miterlimit:4;stroke-dasharray:none;stroke-dashoffset:0;stroke-opacity:1;color-rendering:auto;image-rendering:auto;shape-rendering:auto;text-rendering:auto;enable-background:accumulate" />
      <g
         id="text1138"
         style="font-style:normal;font-variant:normal;font-weight:bold;font-stretch:normal;font-size:7.05555534px;line-height:1.25;font-family:'Ubuntu Mono';-inkscape-font-specification:'Ubuntu Mono, Bold';font-variant-ligatures:normal;font-variant-caps:normal;font-variant-numeric:normal;font-feature-settings:normal;text-align:start;letter-spacing:1.85208333px;word-spacing:0px;writing-mode:lr-tb;text-anchor:start;fill:#000000;fill-opacity:1;stroke:none;stroke-width:0.26458332"
         aria-label="DANIEL TEIXEIRA">
        <path
           inkscape:connector-curvature="0"
           id="path1144"
           style="font-style:normal;font-variant:normal;font-weight:bold;font-stretch:normal;font-size:7.05555534px;font-family:'Ubuntu Mono';-inkscape-font-specification:'Ubuntu Mono, Bold';font-variant-ligatures:normal;font-variant-caps:normal;font-variant-numeric:normal;font-feature-settings:normal;text-align:start;letter-spacing:1.85208333px;writing-mode:lr-tb;text-anchor:start;stroke-width:0.26458332"
           d="m 74.730262,79.314632 q 0.02452,-0.02633 0.04673,-0.06237 0.02221,-0.03604 0.04072,-0.06607 0.155475,-0.252272 0.16302,-0.479682 0.01125,-0.233416 -0.094,-0.439175 -0.10155,-0.211766 -0.303884,-0.394479 -0.204638,-0.192421 -0.480937,-0.362702 -0.240259,-0.14807 -0.490715,-0.252699 -0.250457,-0.104628 -0.480172,-0.121882 -0.229714,-0.01725 -0.42807,0.07598 -0.204363,0.08954 -0.356135,0.335803 -0.02961,0.04805 -0.06063,0.111818 -0.03702,0.06006 -0.05462,0.11552 z m -0.165638,-2.555289 q 0.516557,0.318352 0.801514,0.676302 0.282651,0.348242 0.370231,0.717156 0.08758,0.368913 -4.98e-4,0.753888 -0.09038,0.375267 -0.323593,0.753675 -0.122159,0.198214 -0.264641,0.375614 -0.132774,0.175096 -0.31409,0.361715 l -3.627913,-2.235867 q 0.101416,-0.285588 0.220362,-0.518933 0.118946,-0.233345 0.237402,-0.425552 0.225808,-0.366395 0.519013,-0.600087 0.296907,-0.239699 0.660721,-0.305557 0.357808,-0.06956 0.78853,0.03842 0.428418,0.09828 0.932962,0.409223 z" />
        <path
           inkscape:connector-curvature="0"
           id="path1146"
           style="font-style:normal;font-variant:normal;font-weight:bold;font-stretch:normal;font-size:7.05555534px;font-family:'Ubuntu Mono';-inkscape-font-specification:'Ubuntu Mono, Bold';font-variant-ligatures:normal;font-variant-caps:normal;font-variant-numeric:normal;font-feature-settings:normal;text-align:start;letter-spacing:1.85208333px;writing-mode:lr-tb;text-anchor:start;stroke-width:0.26458332"
           d="m 79.236554,74.29527 -0.90509,-0.490557 -0.74709,0.892828 0.647005,0.798988 -0.57956,0.692618 Q 76.860816,75.122469 76.252906,74.199798 75.639585,73.2726 75.099258,72.43408 l 0.606727,-0.725085 q 0.935131,0.377696 1.957721,0.837775 1.021708,0.450141 2.17052,1.034238 z m -3.198187,-1.664161 q 0.14411,0.212584 0.276514,0.406174 0.131521,0.18365 0.263042,0.367301 0.130637,0.173712 0.266686,0.351952 0.140577,0.172829 0.291975,0.354713 l 0.547866,-0.65474 Q 77.478717,73.339558 77.283807,73.231662 77.088897,73.123766 76.890342,73.03122 76.690904,72.928735 76.48241,72.837073 76.273033,72.735471 76.038367,72.631109 Z" />
        <path
           inkscape:connector-curvature="0"
           id="path1148"
           style="font-style:normal;font-variant:normal;font-weight:bold;font-stretch:normal;font-size:7.05555534px;font-family:'Ubuntu Mono';-inkscape-font-specification:'Ubuntu Mono, Bold';font-variant-ligatures:normal;font-variant-caps:normal;font-variant-numeric:normal;font-feature-settings:normal;text-align:start;letter-spacing:1.85208333px;writing-mode:lr-tb;text-anchor:start;stroke-width:0.26458332"
           d="m 83.036341,70.531812 q -0.70483,-0.345184 -1.447094,-0.647537 -0.741693,-0.312314 -1.525515,-0.587063 l 1.929931,2.164348 -0.584532,0.521222 -2.906635,-3.259686 0.521339,-0.464874 q 0.35406,0.100227 0.745686,0.242582 0.386929,0.137089 0.763327,0.28357 0.381664,0.141784 0.722911,0.29125 0.346512,0.144769 0.599814,0.259216 l -1.78906,-2.006366 0.584532,-0.521222 2.906636,3.259686 z" />
        <path
           inkscape:connector-curvature="0"
           id="path1150"
           style="font-style:normal;font-variant:normal;font-weight:bold;font-stretch:normal;font-size:7.05555534px;font-family:'Ubuntu Mono';-inkscape-font-specification:'Ubuntu Mono, Bold';font-variant-ligatures:normal;font-variant-caps:normal;font-variant-numeric:normal;font-feature-settings:normal;text-align:start;letter-spacing:1.85208333px;writing-mode:lr-tb;text-anchor:start;stroke-width:0.26458332"
           d="m 85.590324,68.510009 -0.395945,-0.600955 0.795382,-0.524045 -1.610953,-2.445064 -0.795382,0.524045 -0.395946,-0.600956 2.315447,-1.525553 0.395945,0.600955 -0.789491,0.520164 1.610953,2.445064 0.789491,-0.520163 0.395945,0.600955 z" />
        <path
           inkscape:connector-curvature="0"
           id="path1152"
           style="font-style:normal;font-variant:normal;font-weight:bold;font-stretch:normal;font-size:7.05555534px;font-family:'Ubuntu Mono';-inkscape-font-specification:'Ubuntu Mono, Bold';font-variant-ligatures:normal;font-variant-caps:normal;font-variant-numeric:normal;font-feature-settings:normal;text-align:start;letter-spacing:1.85208333px;writing-mode:lr-tb;text-anchor:start;stroke-width:0.26458332"
           d="m 90.241048,65.684022 -1.851548,-3.955484 2.396295,-1.121697 0.305101,0.651792 -1.61031,0.75378 0.415776,0.888227 1.399436,-0.655071 0.305102,0.651792 -1.399436,0.655071 0.520467,1.111881 1.750893,-0.819587 0.305101,0.651792 z" />
        <path
           inkscape:connector-curvature="0"
           id="path1154"
           style="font-style:normal;font-variant:normal;font-weight:bold;font-stretch:normal;font-size:7.05555534px;font-family:'Ubuntu Mono';-inkscape-font-specification:'Ubuntu Mono, Bold';font-variant-ligatures:normal;font-variant-caps:normal;font-variant-numeric:normal;font-feature-settings:normal;text-align:start;letter-spacing:1.85208333px;writing-mode:lr-tb;text-anchor:start;stroke-width:0.26458332"
           d="m 97.873965,62.773435 -2.627071,0.794598 -1.264412,-4.180353 0.837421,-0.253291 1.05606,3.491507 1.78965,-0.541308 z" />
        <path
           inkscape:connector-curvature="0"
           id="path1156"
           style="font-style:normal;font-variant:normal;font-weight:bold;font-stretch:normal;font-size:7.05555534px;font-family:'Ubuntu Mono';-inkscape-font-specification:'Ubuntu Mono, Bold';font-variant-ligatures:normal;font-variant-caps:normal;font-variant-numeric:normal;font-feature-settings:normal;text-align:start;letter-spacing:1.85208333px;writing-mode:lr-tb;text-anchor:start;stroke-width:0.26458332"
           d="m 108.6237,57.228754 0.004,0.719657 -1.15004,0.0059 0.0186,3.647675 -0.87488,0.0045 -0.0186,-3.647675 -1.15004,0.0059 -0.004,-0.719657 z" />
        <path
           inkscape:connector-curvature="0"
           id="path1158"
           style="font-style:normal;font-variant:normal;font-weight:bold;font-stretch:normal;font-size:7.05555534px;font-family:'Ubuntu Mono';-inkscape-font-specification:'Ubuntu Mono, Bold';font-variant-ligatures:normal;font-variant-caps:normal;font-variant-numeric:normal;font-feature-settings:normal;text-align:start;letter-spacing:1.85208333px;writing-mode:lr-tb;text-anchor:start;stroke-width:0.26458332"
           d="m 111.11492,61.782465 0.61114,-4.324418 2.6198,0.370241 -0.1007,0.712586 -1.76051,-0.248802 -0.13724,0.971073 1.52997,0.216221 -0.10071,0.712586 -1.52996,-0.216221 -0.17179,1.215587 1.9142,0.270523 -0.10071,0.712586 z" />
        <path
           inkscape:connector-curvature="0"
           id="path1160"
           style="font-style:normal;font-variant:normal;font-weight:bold;font-stretch:normal;font-size:7.05555534px;font-family:'Ubuntu Mono';-inkscape-font-specification:'Ubuntu Mono, Bold';font-variant-ligatures:normal;font-variant-caps:normal;font-variant-numeric:normal;font-feature-settings:normal;text-align:start;letter-spacing:1.85208333px;writing-mode:lr-tb;text-anchor:start;stroke-width:0.26458332"
           d="m 116.34791,62.714675 0.20322,-0.690378 0.91374,0.268971 0.82683,-2.808888 -0.91373,-0.26897 0.20322,-0.690378 2.65998,0.783004 -0.20322,0.690378 -0.90697,-0.266979 -0.82683,2.808888 0.90696,0.266978 -0.20322,0.690378 z" />
        <path
           inkscape:connector-curvature="0"
           id="path1162"
           style="font-style:normal;font-variant:normal;font-weight:bold;font-stretch:normal;font-size:7.05555534px;font-family:'Ubuntu Mono';-inkscape-font-specification:'Ubuntu Mono, Bold';font-variant-ligatures:normal;font-variant-caps:normal;font-variant-numeric:normal;font-feature-settings:normal;text-align:start;letter-spacing:1.85208333px;writing-mode:lr-tb;text-anchor:start;stroke-width:0.26458332"
           d="m 123.38665,65.30585 q 0.0286,-0.382927 0.0319,-0.862901 0.01,-0.477025 2.7e-4,-0.962896 -0.35986,0.292671 -0.73446,0.61739 -0.37165,0.31831 -0.65664,0.583291 l -0.85251,-0.392172 q 0.14371,-0.14358 0.37755,-0.33113 0.24025,-0.184601 0.51742,-0.398816 0.28357,-0.211265 0.58587,-0.429454 0.30524,-0.224598 0.58587,-0.429454 l -0.17739,-2.349361 0.85251,0.392172 0.0443,1.558121 1.24405,-0.96544 0.79483,0.365634 -1.86492,1.38656 q 0.0463,0.355238 0.0743,0.733166 0.0281,0.377929 0.0364,0.731243 0.0177,0.349853 0.0117,0.649964 -0.003,0.293702 -0.0186,0.496255 z" />
        <path
           inkscape:connector-curvature="0"
           id="path1164"
           style="font-style:normal;font-variant:normal;font-weight:bold;font-stretch:normal;font-size:7.05555534px;font-family:'Ubuntu Mono';-inkscape-font-specification:'Ubuntu Mono, Bold';font-variant-ligatures:normal;font-variant-caps:normal;font-variant-numeric:normal;font-feature-settings:normal;text-align:start;letter-spacing:1.85208333px;writing-mode:lr-tb;text-anchor:start;stroke-width:0.26458332"
           d="m 126.31005,66.866315 2.37154,-3.667408 2.22177,1.436717 -0.39078,0.604323 -1.49304,-0.965474 -0.53254,0.823537 1.29752,0.839043 -0.39079,0.604323 -1.29752,-0.839043 -0.66663,1.030903 1.62337,1.049761 -0.39078,0.604322 z" />
        <path
           inkscape:connector-curvature="0"
           id="path1166"
           style="font-style:normal;font-variant:normal;font-weight:bold;font-stretch:normal;font-size:7.05555534px;font-family:'Ubuntu Mono';-inkscape-font-specification:'Ubuntu Mono, Bold';font-variant-ligatures:normal;font-variant-caps:normal;font-variant-numeric:normal;font-feature-settings:normal;text-align:start;letter-spacing:1.85208333px;writing-mode:lr-tb;text-anchor:start;stroke-width:0.26458332"
           d="m 130.66856,69.908798 0.47389,-0.541614 0.71684,0.627211 1.9281,-2.203625 -0.71685,-0.627212 0.4739,-0.541613 2.0868,1.825881 -0.47389,0.541614 -0.71153,-0.622565 -1.9281,2.203625 0.71154,0.622565 -0.4739,0.541614 z" />
        <path
           inkscape:connector-curvature="0"
           id="path1168"
           style="font-style:normal;font-variant:normal;font-weight:bold;font-stretch:normal;font-size:7.05555534px;font-family:'Ubuntu Mono';-inkscape-font-specification:'Ubuntu Mono, Bold';font-variant-ligatures:normal;font-variant-caps:normal;font-variant-numeric:normal;font-feature-settings:normal;text-align:start;letter-spacing:1.85208333px;writing-mode:lr-tb;text-anchor:start;stroke-width:0.26458332"
           d="m 138.68186,71.584993 q 0.24264,0.284532 0.37508,0.570316 0.13244,0.285785 0.14015,0.566664 0.008,0.280879 -0.12841,0.545325 -0.12617,0.265236 -0.40533,0.503302 -0.2899,0.247222 -0.62684,0.330556 -0.33694,0.08333 -0.6939,-0.08516 -0.0618,0.210298 -0.14656,0.458802 -0.0794,0.243926 -0.18493,0.500796 -0.10012,0.252292 -0.21477,0.498425 -0.1047,0.246924 -0.21618,0.45327 l -0.59059,-0.692539 q 0.21681,-0.398168 0.37016,-0.816393 0.16329,-0.417434 0.30906,-0.866289 l -0.29301,-0.343585 -1.22402,1.043827 -0.56312,-0.660328 3.2748,-2.792697 q 0.10388,0.07832 0.21613,0.177325 0.12219,0.0998 0.22828,0.213324 0.11146,0.108951 0.20839,0.211743 0.0969,0.102792 0.16561,0.18332 z m -0.58542,1.509964 q 0.26306,-0.224332 0.24919,-0.490686 -0.0139,-0.266354 -0.2382,-0.529411 -0.032,-0.03758 -0.0832,-0.08669 -0.0458,-0.05369 -0.1023,-0.09821 l -0.99855,0.851544 0.12361,0.14495 q 0.28843,0.338217 0.54546,0.378659 0.26241,0.03586 0.50399,-0.170155 z" />
        <path
           inkscape:connector-curvature="0"
           id="path1170"
           style="font-style:normal;font-variant:normal;font-weight:bold;font-stretch:normal;font-size:7.05555534px;font-family:'Ubuntu Mono';-inkscape-font-specification:'Ubuntu Mono, Bold';font-variant-ligatures:normal;font-variant-caps:normal;font-variant-numeric:normal;font-feature-settings:normal;text-align:start;letter-spacing:1.85208333px;writing-mode:lr-tb;text-anchor:start;stroke-width:0.26458332"
           d="m 139.07578,79.628417 0.74573,-0.709736 -0.61897,-0.985981 -0.95956,0.369125 -0.48017,-0.764882 q 1.2586,-0.423568 2.32376,-0.717366 1.07113,-0.29755 2.0354,-0.553005 l 0.50268,0.800736 q -0.64763,0.773111 -1.40059,1.60402 -0.74324,0.833132 -1.6531,1.745873 z m 2.5692,-2.529242 q -0.24666,0.07154 -0.47164,0.137803 -0.21526,0.06849 -0.43052,0.136973 -0.20552,0.07071 -0.41703,0.145173 -0.20775,0.08044 -0.42746,0.168379 l 0.45392,0.723052 q 0.17469,-0.159648 0.33742,-0.311794 0.16274,-0.152145 0.312,-0.312491 0.15898,-0.158121 0.31047,-0.328194 0.1612,-0.167848 0.33284,-0.358901 z" />
      </g>
      <g
         id="text1177"
         style="font-style:normal;font-variant:normal;font-weight:bold;font-stretch:normal;font-size:7.05555582px;line-height:1.25;font-family:'Ubuntu Mono';-inkscape-font-specification:'Ubuntu Mono, Bold';font-variant-ligatures:normal;font-variant-caps:normal;font-variant-numeric:normal;font-feature-settings:normal;text-align:start;letter-spacing:1.85208333px;word-spacing:0px;writing-mode:lr-tb;text-anchor:start;fill:#000000;fill-opacity:1;stroke:none;stroke-width:0.26458332"
         aria-label="HTML PORTFOLIO">
        <path
           inkscape:connector-curvature="0"
           id="path1183"
           style="letter-spacing:1.85208333px;stroke-width:0.26458332"
           d="m 80.436233,125.1894 -3.226274,2.94368 -0.584932,-0.64108 1.422897,-1.29826 -0.779909,-0.85478 -1.422896,1.29826 -0.584931,-0.64109 3.226274,-2.94368 0.584931,0.64109 -1.271746,1.16035 0.779908,0.85478 1.271746,-1.16035 z" />
        <path
           inkscape:connector-curvature="0"
           id="path1185"
           style="letter-spacing:1.85208333px;stroke-width:0.26458332"
           d="m 84.139706,128.49398 -0.46553,0.54882 -0.877034,-0.74394 -2.359598,2.78176 -0.667191,-0.56594 2.359598,-2.78176 -0.877034,-0.74393 0.46553,-0.54882 z" />
        <path
           inkscape:connector-curvature="0"
           id="path1187"
           style="letter-spacing:1.85208333px;stroke-width:0.26458332"
           d="m 86.265226,129.99643 q -0.03905,0.15122 -0.106334,0.38502 -0.06136,0.23764 -0.135971,0.50872 -0.07461,0.27108 -0.153051,0.54809 -0.07844,0.277 -0.139805,0.51463 0.212928,-0.17314 0.439447,-0.3543 0.230353,-0.18709 0.439447,-0.35431 0.212928,-0.17315 0.394841,-0.32435 0.181913,-0.1512 0.309808,-0.24491 l 0.604152,0.39105 q -0.269078,0.5066 -0.528744,0.98568 -0.253743,0.48292 -0.521421,0.9484 -0.257921,0.4634 -0.535357,0.93098 -0.273601,0.46165 -0.568461,0.94317 l -0.669306,-0.43323 1.879608,-2.82599 -1.454615,1.26048 -0.533075,-0.34505 0.572078,-1.83171 -1.814454,2.86816 -0.669306,-0.43322 q 0.30914,-0.43865 0.641282,-0.91284 0.338066,-0.47036 0.672298,-0.93479 0.334232,-0.46443 0.655218,-0.89542 0.326909,-0.42715 0.617569,-0.78531 z" />
        <path
           inkscape:connector-curvature="0"
           id="path1189"
           style="letter-spacing:1.85208333px;stroke-width:0.26458332"
           d="m 90.448712,137.26616 -2.4769,-1.18231 1.881361,-3.94139 0.789552,0.37688 -1.571347,3.29192 1.687348,0.80543 z" />
        <path
           inkscape:connector-curvature="0"
           id="path1191"
           style="letter-spacing:1.85208333px;stroke-width:0.26458332"
           d="m 99.957018,135.59935 q 0.817732,0.15639 1.203242,0.58211 0.38682,0.41879 0.24103,1.18108 -0.14712,0.76922 -0.67076,1.02825 -0.51539,0.25342 -1.346986,0.0944 l -0.304918,-0.0583 -0.277005,1.44836 -0.852384,-0.16302 0.809808,-4.2342 q 0.130041,-0.004 0.286476,0.005 0.163365,0.01 0.32408,0.0332 0.162039,0.0166 0.315824,0.0389 0.153784,0.0222 0.271593,0.0448 z m -0.0448,0.76006 q -0.07623,-0.0146 -0.216153,-0.0342 -0.131669,-0.0252 -0.21055,-0.0259 l -0.265076,1.38599 0.346498,0.0663 q 0.408867,0.0782 0.647253,-0.0414 0.23971,-0.12656 0.31525,-0.52157 0.0716,-0.37422 -0.10717,-0.56644 -0.17048,-0.19782 -0.510052,-0.26276 z" />
        <path
           inkscape:connector-curvature="0"
           id="path1193"
           style="letter-spacing:1.85208333px;stroke-width:0.26458332"
           d="m 104.08595,138.41785 q -0.0195,0.3169 -0.0157,0.59989 0.0113,0.27638 0.0691,0.48495 0.0649,0.20899 0.19132,0.33695 0.12643,0.12796 0.35178,0.14183 0.21831,0.0135 0.35948,-0.098 0.14822,-0.11104 0.23122,-0.31093 0.0905,-0.2065 0.12851,-0.47984 0.0451,-0.27291 0.0646,-0.58981 0.0195,-0.3169 0.008,-0.59328 -0.004,-0.28299 -0.0687,-0.49199 -0.0579,-0.20856 -0.18427,-0.33652 -0.12643,-0.12795 -0.35178,-0.14183 -0.22536,-0.0139 -0.36653,0.0976 -0.14118,0.11147 -0.23165,0.31797 -0.083,0.19989 -0.12808,0.4728 -0.038,0.27334 -0.0576,0.59024 z m -0.88028,-0.0542 q 0.0694,-1.12675 0.52001,-1.67158 0.45106,-0.55188 1.19049,-0.50634 0.7676,0.0473 1.13345,0.64946 0.36627,0.59514 0.29688,1.72189 -0.0694,1.12675 -0.5134,1.67906 -0.44358,0.54527 -1.19005,0.4993 -0.76761,-0.0473 -1.14092,-0.64285 -0.36585,-0.60218 -0.29646,-1.72894 z" />
        <path
           inkscape:connector-curvature="0"
           id="path1195"
           style="letter-spacing:1.85208333px;stroke-width:0.26458332"
           d="m 109.47287,136.24102 q 0.37313,-0.0247 0.68144,0.0398 0.30832,0.0645 0.53821,0.22602 0.22989,0.16157 0.36069,0.42868 0.13738,0.25961 0.1616,0.6257 0.0251,0.38017 -0.10924,0.70018 -0.13439,0.32002 -0.48273,0.50569 0.1318,0.17513 0.28046,0.39157 0.14821,0.20939 0.29123,0.44741 0.14256,0.23099 0.2715,0.46994 0.13552,0.23145 0.23444,0.4441 l -0.90818,0.0601 q -0.18987,-0.4117 -0.43373,-0.78447 -0.23729,-0.38028 -0.51024,-0.76527 l -0.45057,0.0298 0.10619,1.60516 -0.86594,0.0573 -0.28411,-4.2945 q 0.12486,-0.0365 0.27131,-0.0674 0.15302,-0.0384 0.30744,-0.0557 0.15395,-0.0243 0.29429,-0.0407 0.14034,-0.0164 0.24594,-0.0233 z m 0.86146,1.37135 q -0.0228,-0.34497 -0.24474,-0.49292 -0.22192,-0.14795 -0.56689,-0.12513 -0.0493,0.003 -0.11921,0.015 -0.0704,0.005 -0.13988,0.0234 l 0.0866,1.30947 0.19009,-0.0126 q 0.44353,-0.0293 0.62947,-0.21135 0.18549,-0.18905 0.16453,-0.50585 z" />
        <path
           inkscape:connector-curvature="0"
           id="path1197"
           style="letter-spacing:1.85208333px;stroke-width:0.26458332"
           d="m 116.06365,135.3426 0.13885,0.70615 -1.12844,0.2219 0.70382,3.57917 -0.85845,0.16881 -0.70382,-3.57918 -1.12844,0.2219 -0.13886,-0.70614 z" />
        <path
           inkscape:connector-curvature="0"
           id="path1199"
           style="letter-spacing:1.85208333px;stroke-width:0.26458332"
           d="m 119.29507,138.97864 -1.38613,-4.14158 2.5358,-0.8487 0.22841,0.68246 -1.71284,0.57326 0.3359,1.00362 1.49873,-0.50161 0.22841,0.68246 -1.49873,0.50161 0.59341,1.77305 z" />
        <path
           inkscape:connector-curvature="0"
           id="path1201"
           style="letter-spacing:1.85208333px;stroke-width:0.26458332"
           d="m 123.94603,134.86282 q 0.13872,0.28559 0.28106,0.53021 0.1456,0.23518 0.29846,0.38841 0.15921,0.15014 0.3322,0.19946 0.17299,0.0493 0.37608,-0.0493 0.19674,-0.0956 0.26492,-0.26202 0.0745,-0.16954 0.0486,-0.38442 -0.0227,-0.2243 -0.12385,-0.48106 -0.0948,-0.25985 -0.23355,-0.54545 -0.13871,-0.28559 -0.28432,-0.52077 -0.14234,-0.24462 -0.30155,-0.39476 -0.15286,-0.15322 -0.32585,-0.20255 -0.17298,-0.0493 -0.37607,0.0493 -0.20309,0.0986 -0.27127,0.2651 -0.0682,0.16646 -0.0455,0.39077 0.0259,0.21487 0.12076,0.47472 0.10118,0.25676 0.2399,0.54236 z m -0.79332,0.38532 q -0.49321,-1.01545 -0.36845,-1.71139 0.12167,-0.70229 0.78806,-1.02596 0.69178,-0.336 1.3063,0.009 0.61144,0.33837 1.10465,1.35381 0.49321,1.01545 0.37788,1.71466 -0.11841,0.69286 -0.79114,1.01961 -0.69178,0.336 -1.30956,7.2e-4 -0.61453,-0.34471 -1.10774,-1.36016 z" />
        <path
           inkscape:connector-curvature="0"
           id="path1203"
           style="letter-spacing:1.85208333px;stroke-width:0.26458332"
           d="m 131.4369,133.05975 -2.29455,1.50597 -2.39639,-3.65121 0.73142,-0.48006 2.00151,3.04956 1.56312,-1.02592 z" />
        <path
           inkscape:connector-curvature="0"
           id="path1205"
           style="letter-spacing:1.85208333px;stroke-width:0.26458332"
           d="m 133.44553,131.54164 -0.46782,-0.54687 0.7238,-0.61917 -1.90336,-2.22502 -0.7238,0.61917 -0.46781,-0.54688 2.10707,-1.80246 0.46781,0.54687 -0.71844,0.61458 1.90336,2.22503 0.71844,-0.61458 0.46782,0.54687 z" />
        <path
           inkscape:connector-curvature="0"
           id="path1207"
           style="letter-spacing:1.85208333px;stroke-width:0.26458332"
           d="m 136.26712,125.94048 q 0.23532,0.21315 0.4587,0.38693 0.22288,0.16381 0.4219,0.24888 0.20375,0.0798 0.38264,0.061 0.1789,-0.0188 0.33047,-0.18617 0.14684,-0.1621 0.14794,-0.34198 0.006,-0.18511 -0.0984,-0.37476 -0.10477,-0.19963 -0.2945,-0.40004 -0.185,-0.20565 -0.42031,-0.4188 -0.23532,-0.21315 -0.45821,-0.37696 -0.22338,-0.17378 -0.42713,-0.25362 -0.19901,-0.0851 -0.37791,-0.0662 -0.17889,0.0188 -0.33046,0.18617 -0.15157,0.16733 -0.15267,0.34721 -0.001,0.17988 0.10367,0.3795 0.10428,0.18966 0.28928,0.3953 0.18973,0.20042 0.42504,0.41357 z m -0.59208,0.65366 q -0.83668,-0.75787 -0.98078,-1.45006 -0.14934,-0.69693 0.34801,-1.246 0.5163,-0.56999 1.21508,-0.47965 0.69356,0.0856 1.53024,0.84347 0.83668,0.75786 0.99075,1.44956 0.14884,0.68697 -0.35325,1.24127 -0.51629,0.56998 -1.21459,0.48961 -0.69878,-0.0903 -1.53546,-0.8482 z" />
      </g>
      <path
         inkscape:connector-curvature="0"
         id="path1323"
         d="m 143.4082,85.089844 a 0.68806054,0.68806054 0 0 0 -0.63086,0.957031 c 4.45951,10.870214 3.70291,22.938455 -2.08984,33.253905 a 0.68806054,0.68806054 0 1 0 1.19922,0.67383 c 5.99234,-10.67086 6.78032,-23.19692 2.16406,-34.449219 a 0.68806054,0.68806054 0 0 0 -0.64258,-0.435547 z"
         style="color:#000000;font-style:normal;font-variant:normal;font-weight:normal;font-stretch:normal;font-size:medium;line-height:normal;font-family:sans-serif;font-variant-ligatures:normal;font-variant-position:normal;font-variant-caps:normal;font-variant-numeric:normal;font-variant-alternates:normal;font-feature-settings:normal;text-indent:0;text-align:start;text-decoration:none;text-decoration-line:none;text-decoration-style:solid;text-decoration-color:#000000;letter-spacing:normal;word-spacing:normal;text-transform:none;writing-mode:lr-tb;direction:ltr;text-orientation:mixed;dominant-baseline:auto;baseline-shift:baseline;text-anchor:start;white-space:normal;shape-padding:0;clip-rule:nonzero;display:inline;overflow:visible;visibility:visible;opacity:1;isolation:auto;mix-blend-mode:normal;color-interpolation:sRGB;color-interpolation-filters:linearRGB;solid-color:#000000;solid-opacity:1;vector-effect:none;fill:#000000;fill-opacity:1;fill-rule:nonzero;stroke:none;stroke-width:1.37598348;stroke-linecap:round;stroke-linejoin:round;stroke-miterlimit:4;stroke-dasharray:none;stroke-dashoffset:0;stroke-opacity:1;color-rendering:auto;image-rendering:auto;shape-rendering:auto;text-rendering:auto;enable-background:accumulate" />
    </g>
  </g>
</svg>
